<svg width="22" height="22" viewBox="0 0 22 22" fill="none" xmlns="http://www.w3.org/2000/svg">
<path d="M11 12.925C9.96875 12.925 9.075 12.1 9.075 11C9.075 9.96875 9.9 9.075 11 9.075C12.0312 9.075 12.925 9.9 12.925 11C12.925 12.0312 12.0312 12.925 11 12.925Z" fill="white" fill-opacity="0.9"/>
<path fill-rule="evenodd" clip-rule="evenodd" d="M13.3375 6.325H8.6625C8.1125 6.39375 7.8375 6.4625 7.63125 6.53125C7.35625 6.6 7.15 6.7375 6.94375 6.94375C6.78055 7.10695 6.70344 7.27016 6.61023 7.46742C6.58567 7.51941 6.55992 7.57391 6.53125 7.63125C6.52061 7.66315 6.50833 7.69671 6.49517 7.73267C6.42325 7.92916 6.325 8.19758 6.325 8.6625V13.3375C6.39375 13.8875 6.4625 14.1625 6.53125 14.3687C6.6 14.6437 6.7375 14.85 6.94375 15.0562C7.10695 15.2195 7.27016 15.2966 7.46742 15.3898C7.51946 15.4143 7.57386 15.44 7.63125 15.4687C7.66316 15.4794 7.69671 15.4917 7.73267 15.5048C7.92917 15.5767 8.19758 15.675 8.6625 15.675H13.3375C13.8875 15.6062 14.1625 15.5375 14.3687 15.4687C14.6437 15.4 14.85 15.2625 15.0562 15.0562C15.2195 14.893 15.2966 14.7298 15.3898 14.5326C15.4143 14.4806 15.4401 14.4261 15.4688 14.3687C15.4794 14.3368 15.4917 14.3033 15.5048 14.2673C15.5768 14.0708 15.675 13.8024 15.675 13.3375V8.6625C15.6062 8.1125 15.5375 7.8375 15.4688 7.63125C15.4 7.35625 15.2625 7.15 15.0562 6.94375C14.893 6.78054 14.7298 6.70344 14.5326 6.61023C14.4806 6.58569 14.426 6.5599 14.3687 6.53125C14.3368 6.52061 14.3033 6.50833 14.2673 6.49517C14.0708 6.42325 13.8024 6.325 13.3375 6.325ZM11 8.04375C9.35 8.04375 8.04375 9.35 8.04375 11C8.04375 12.65 9.35 13.9562 11 13.9562C12.65 13.9562 13.9562 12.65 13.9562 11C13.9562 9.35 12.65 8.04375 11 8.04375ZM14.7125 7.975C14.7125 8.35469 14.4047 8.6625 14.025 8.6625C13.6453 8.6625 13.3375 8.35469 13.3375 7.975C13.3375 7.5953 13.6453 7.2875 14.025 7.2875C14.4047 7.2875 14.7125 7.5953 14.7125 7.975Z" fill="white" fill-opacity="0.9"/>
<path fill-rule="evenodd" clip-rule="evenodd" d="M0 3.4375C0 1.53902 1.53902 0 3.4375 0H18.5625C20.461 0 22 1.53902 22 3.4375V18.5625C22 20.461 20.461 22 18.5625 22H3.4375C1.53902 22 0 20.461 0 18.5625V3.4375ZM8.6625 5.29375H13.3375C13.9562 5.3625 14.3687 5.43125 14.7125 5.56875C15.125 5.775 15.4 5.9125 15.7437 6.25625C16.0875 6.6 16.2938 6.94375 16.4313 7.2875C16.5688 7.63125 16.7062 8.04375 16.7062 8.6625V13.3375C16.6375 13.9562 16.5688 14.3687 16.4313 14.7125C16.225 15.125 16.0875 15.4 15.7437 15.7437C15.4 16.0875 15.0562 16.2937 14.7125 16.4312C14.3687 16.5687 13.9562 16.7062 13.3375 16.7062H8.6625C8.04375 16.6375 7.63125 16.5687 7.2875 16.4312C6.875 16.225 6.6 16.0875 6.25625 15.7437C5.9125 15.4 5.70625 15.0562 5.56875 14.7125C5.43125 14.3687 5.29375 13.9562 5.29375 13.3375V8.6625C5.3625 8.04375 5.43125 7.63125 5.56875 7.2875C5.775 6.875 5.9125 6.6 6.25625 6.25625C6.6 5.9125 6.94375 5.70625 7.2875 5.56875C7.63125 5.43125 8.04375 5.29375 8.6625 5.29375Z" fill="white" fill-opacity="0.9"/>
</svg>
