<svg width="28" height="28" viewBox="0 0 28 28" fill="none" xmlns="http://www.w3.org/2000/svg">
<path d="M22.925 3.5H5.075C4.235 3.5 3.5 4.13313 3.5 4.97735V23.0226C3.5 23.8668 4.235 24.5 5.075 24.5H22.925C23.765 24.5 24.5 23.8668 24.5 23.0226V4.97735C24.5 4.23865 23.765 3.5 22.925 3.5ZM9.695 21.5452H6.545V11.5201H9.695V21.5452ZM8.12 10.0427C7.07 10.0427 6.335 9.19849 6.335 8.24874C6.335 7.29899 7.175 6.45476 8.12 6.45476C9.065 6.45476 9.905 7.29899 9.905 8.24874C10.01 9.30402 9.17 10.0427 8.12 10.0427ZM21.35 21.5452H18.2V16.691C18.2 15.5302 18.2 14.0528 16.625 14.0528C15.05 14.0528 14.735 15.3191 14.735 16.691V21.6507H11.585V11.6256H14.525V12.9975C14.945 12.1533 15.995 11.4146 17.465 11.4146C20.615 11.4146 21.245 13.5251 21.245 16.1633V21.5452H21.35Z" fill="white" fill-opacity="0.9"/>
</svg>
