<svg width="40" height="40" viewBox="0 0 40 40" fill="none" xmlns="http://www.w3.org/2000/svg">
<path fill-rule="evenodd" clip-rule="evenodd" d="M37.7778 28.8889H22.2222V37.7778H37.7778V28.8889ZM37.7778 2.22222H22.2222V20H37.7778V2.22222ZM13.3333 20H2.22222V37.7778H13.3333V20ZM13.3333 2.22222H2.22222V11.1111H13.3333V2.22222ZM22.2222 0C20.9949 0 20 0.994933 20 2.22222V20C20 21.2273 20.9949 22.2222 22.2222 22.2222H37.7778C39.0051 22.2222 40 21.2273 40 20V2.22222C40 0.994933 39.0051 0 37.7778 0H22.2222ZM22.2222 26.6667C20.9949 26.6667 20 27.6616 20 28.8889V37.7778C20 39.0051 20.9949 40 22.2222 40H37.7778C39.0051 40 40 39.0051 40 37.7778V28.8889C40 27.6616 39.0051 26.6667 37.7778 26.6667H22.2222ZM0 20C0 18.7727 0.994933 17.7778 2.22222 17.7778H13.3333C14.5606 17.7778 15.5556 18.7727 15.5556 20V37.7778C15.5556 39.0051 14.5606 40 13.3333 40H2.22222C0.994933 40 0 39.0051 0 37.7778V20ZM2.22222 0C0.994933 0 0 0.994933 0 2.22222V11.1111C0 12.3384 0.994933 13.3333 2.22222 13.3333H13.3333C14.5606 13.3333 15.5556 12.3384 15.5556 11.1111V2.22222C15.5556 0.994933 14.5606 0 13.3333 0H2.22222Z" fill="#E92828"/>
</svg>
