<svg width="37" height="37" viewBox="0 0 37 37" fill="none" xmlns="http://www.w3.org/2000/svg">
<path d="M19.9124 1.38768L35.6122 17.0875L37 15.6998L21.3002 0L19.9124 1.38768Z" fill="#E92828"/>
<path fill-rule="evenodd" clip-rule="evenodd" d="M22.2394 8.78928C21.3882 7.93814 20.1046 7.69094 18.9981 8.1651L8.10218 12.8348C6.81521 13.3864 5.82294 14.4603 5.38303 15.7945C4.35043 18.9262 3.0145 23.0641 1.93592 26.6013C1.39695 28.3689 0.919957 29.994 0.576887 31.2712C0.405563 31.909 0.265209 32.4691 0.166956 32.921C0.0754533 33.3422 0 33.7568 0 34.0557V34.4621L2.53728 36.9994H2.94371C3.24273 36.9994 3.65743 36.9241 4.07844 36.8326C4.53051 36.7343 5.09056 36.594 5.72839 36.4227C7.0056 36.0796 8.63063 35.6025 10.3982 35.0636C13.9354 33.9851 18.0733 32.649 21.2051 31.6166C22.5392 31.1766 23.6131 30.1843 24.1647 28.8974L28.8344 18.0013C29.3086 16.8949 29.0613 15.6113 28.2102 14.7602L22.2394 8.78928ZM19.7713 9.96891C20.1401 9.81085 20.5679 9.89325 20.8517 10.177L26.8225 16.1479C27.1063 16.4316 27.1887 16.8594 27.0305 17.2282L22.3608 28.1243C22.0292 28.8981 21.3859 29.4904 20.5905 29.7526C17.4658 30.7829 13.3433 32.1138 9.82584 33.1863C8.06611 33.7231 6.46528 34.1927 5.2193 34.5273C4.59555 34.6949 4.06968 34.8262 3.66164 34.9149C3.57537 34.9335 3.49574 34.9502 3.42269 34.9645L13.4493 24.9379C14.5435 25.4607 15.8938 25.2687 16.8001 24.3625C17.9497 23.2128 17.9497 21.3491 16.8001 20.1995C15.6505 19.0498 13.7866 19.0498 12.637 20.1995C11.7307 21.1057 11.5389 22.4561 12.0616 23.5502L2.03493 33.5769C2.04935 33.5039 2.0659 33.4242 2.08466 33.3378C2.17334 32.9298 2.30463 32.4039 2.47219 31.7802C2.80685 30.5343 3.27649 28.9335 3.81307 27.1737C4.88564 23.6562 6.21653 19.5336 7.24681 16.409C7.50904 15.6137 8.10127 14.9703 8.87523 14.6386L19.7713 9.96891Z" fill="#E92828"/>
</svg>
